{
  "asset": {
    "generator": "Khronos glTF Blender I/O v1.4.40",
    "version": "2.0"
  },
  "scene": 0,
  "scenes": [
    {
      "name": "Scene",
      "nodes": [0]
    }
  ],
  "nodes": [
    {
      "mesh": 0,
      "name": "Cube.022",
      "rotation": [0.7071068286895752, 0, 0, 0.7071067094802856],
      "scale": [0.20000000298023224, 0.20000000298023224, 0.20000000298023224]
    }
  ],
  "materials": [
    {
      "alphaMode": "BLEND",
      "name": "primary",
      "pbrMetallicRoughness": {
        "baseColorFactor": [0.9902912378311157, 0.5907958149909973, 0.16374894976615906, 1],
        "metallicFactor": 1,
        "roughnessFactor": 1
      }
    },
    {
      "alphaMode": "BLEND",
      "doubleSided": true,
      "name": "Windows",
      "pbrMetallicRoughness": {
        "baseColorFactor": [
          0.6022475361824036,
          0.8355541229248047,
          0.9805825352668762,
          0.8399999737739563
        ],
        "roughnessFactor": 0.6666666865348816
      }
    },
    {
      "alphaMode": "BLEND",
      "doubleSided": true,
      "name": "GUM",
      "pbrMetallicRoughness": {
        "baseColorFactor": [0.291262149810791, 0.28736335039138794, 0.2775017321109772, 1],
        "roughnessFactor": 0.7642977237701416
      }
    },
    {
      "doubleSided": true,
      "name": "secondary",
      "pbrMetallicRoughness": {
        "baseColorFactor": [0.6745098233222961, 0.8980392217636108, 0.9333333373069763, 1],
        "metallicFactor": 0
      }
    }
  ],
  "meshes": [
    {
      "name": "Cube.022",
      "primitives": [
        {
          "attributes": {
            "POSITION": 0,
            "NORMAL": 1,
            "TEXCOORD_0": 2
          },
          "indices": 3,
          "material": 0
        },
        {
          "attributes": {
            "POSITION": 4,
            "NORMAL": 5,
            "TEXCOORD_0": 6
          },
          "indices": 7,
          "material": 1
        },
        {
          "attributes": {
            "POSITION": 8,
            "NORMAL": 9,
            "TEXCOORD_0": 10
          },
          "indices": 11,
          "material": 2
        },
        {
          "attributes": {
            "POSITION": 12,
            "NORMAL": 13,
            "TEXCOORD_0": 14
          },
          "indices": 15,
          "material": 3
        }
      ]
    }
  ],
  "accessors": [
    {
      "bufferView": 0,
      "componentType": 5126,
      "count": 2623,
      "max": [88.009033203125, 105.12651824951172, 0],
      "min": [-88.010009765625, -105.12651062011719, -660.7090454101562],
      "type": "VEC3"
    },
    {
      "bufferView": 1,
      "componentType": 5126,
      "count": 2623,
      "type": "VEC3"
    },
    {
      "bufferView": 2,
      "componentType": 5126,
      "count": 2623,
      "type": "VEC2"
    },
    {
      "bufferView": 3,
      "componentType": 5123,
      "count": 12885,
      "type": "SCALAR"
    },
    {
      "bufferView": 4,
      "componentType": 5126,
      "count": 784,
      "max": [85.021728515625, 102.13900756835938, -88.19985961914062],
      "min": [-85.022705078125, -102.13899230957031, -569.5774536132812],
      "type": "VEC3"
    },
    {
      "bufferView": 5,
      "componentType": 5126,
      "count": 784,
      "type": "VEC3"
    },
    {
      "bufferView": 6,
      "componentType": 5126,
      "count": 784,
      "type": "VEC2"
    },
    {
      "bufferView": 7,
      "componentType": 5123,
      "count": 1176,
      "type": "SCALAR"
    },
    {
      "bufferView": 8,
      "componentType": 5126,
      "count": 5,
      "max": [41.070556640625, -7.44035530090332, -609.2225341796875],
      "min": [33.09814453125, -7.44035530090332, -642.40673828125],
      "type": "VEC3"
    },
    {
      "bufferView": 9,
      "componentType": 5126,
      "count": 5,
      "type": "VEC3"
    },
    {
      "bufferView": 10,
      "componentType": 5126,
      "count": 5,
      "type": "VEC2"
    },
    {
      "bufferView": 11,
      "componentType": 5123,
      "count": 9,
      "type": "SCALAR"
    },
    {
      "bufferView": 12,
      "componentType": 5126,
      "count": 20,
      "max": [41.070556640625, -7.00840950012207, -609.2225341796875],
      "min": [33.09814453125, -7.44035530090332, -642.40673828125],
      "type": "VEC3"
    },
    {
      "bufferView": 13,
      "componentType": 5126,
      "count": 20,
      "type": "VEC3"
    },
    {
      "bufferView": 14,
      "componentType": 5126,
      "count": 20,
      "type": "VEC2"
    },
    {
      "bufferView": 15,
      "componentType": 5123,
      "count": 30,
      "type": "SCALAR"
    }
  ],
  "bufferViews": [
    {
      "buffer": 0,
      "byteLength": 31476,
      "byteOffset": 0
    },
    {
      "buffer": 0,
      "byteLength": 31476,
      "byteOffset": 31476
    },
    {
      "buffer": 0,
      "byteLength": 20984,
      "byteOffset": 62952
    },
    {
      "buffer": 0,
      "byteLength": 25770,
      "byteOffset": 83936
    },
    {
      "buffer": 0,
      "byteLength": 9408,
      "byteOffset": 109708
    },
    {
      "buffer": 0,
      "byteLength": 9408,
      "byteOffset": 119116
    },
    {
      "buffer": 0,
      "byteLength": 6272,
      "byteOffset": 128524
    },
    {
      "buffer": 0,
      "byteLength": 2352,
      "byteOffset": 134796
    },
    {
      "buffer": 0,
      "byteLength": 60,
      "byteOffset": 137148
    },
    {
      "buffer": 0,
      "byteLength": 60,
      "byteOffset": 137208
    },
    {
      "buffer": 0,
      "byteLength": 40,
      "byteOffset": 137268
    },
    {
      "buffer": 0,
      "byteLength": 18,
      "byteOffset": 137308
    },
    {
      "buffer": 0,
      "byteLength": 240,
      "byteOffset": 137328
    },
    {
      "buffer": 0,
      "byteLength": 240,
      "byteOffset": 137568
    },
    {
      "buffer": 0,
      "byteLength": 160,
      "byteOffset": 137808
    },
    {
      "buffer": 0,
      "byteLength": 60,
      "byteOffset": 137968
    }
  ],
  "buffers": [
    {
      "byteLength": 138028,
      "uri": "data:application/octet-stream;base64,"
    }
  ]
}
