{
    "asset" : {
        "generator" : "Khronos glTF Blender I/O v1.4.40",
        "version" : "2.0"
    },
    "scene" : 0,
    "scenes" : [
        {
            "name" : "Scene",
            "nodes" : [
                0
            ]
        }
    ],
    "nodes" : [
        {
            "mesh" : 0,
            "name" : "Cube.025",
            "rotation" : [
                0.5000000596046448,
                -0.4999999701976776,
                0.5000000596046448,
                0.4999999701976776
            ],
            "scale" : [
                0.20000000298023224,
                0.20000000298023224,
                0.20000000298023224
            ]
        }
    ],
    "materials" : [
        {
            "alphaMode" : "BLEND",
            "name" : "primary.003",
            "pbrMetallicRoughness" : {
                "baseColorFactor" : [
                    0.5630388259887695,
                    0.5528155565261841,
                    0.7572815418243408,
                    1
                ],
                "metallicFactor" : 0,
                "roughnessFactor" : 0.7642977237701416
            }
        },
        {
            "alphaMode" : "BLEND",
            "doubleSided" : true,
            "name" : "Windows.003",
            "pbrMetallicRoughness" : {
                "baseColorFactor" : [
                    0.6022475361824036,
                    0.8355541229248047,
                    0.9805825352668762,
                    0.8399999737739563
                ],
                "roughnessFactor" : 0.6666666865348816
            }
        },
        {
            "alphaMode" : "BLEND",
            "doubleSided" : true,
            "name" : "Street.002",
            "pbrMetallicRoughness" : {
                "baseColorFactor" : [
                    0.5339806079864502,
                    0.5339806079864502,
                    0.5339806079864502,
                    1
                ],
                "roughnessFactor" : 0.7642977237701416
            }
        },
        {
            "doubleSided" : true,
            "name" : "secondary.003",
            "pbrMetallicRoughness" : {
                "baseColorFactor" : [
                    0.7843137383460999,
                    0.21960784494876862,
                    0.3529411852359772,
                    1
                ],
                "metallicFactor" : 0
            }
        }
    ],
    "meshes" : [
        {
            "name" : "Cube.002",
            "primitives" : [
                {
                    "attributes" : {
                        "POSITION" : 0,
                        "NORMAL" : 1,
                        "TEXCOORD_0" : 2
                    },
                    "indices" : 3,
                    "material" : 0
                },
                {
                    "attributes" : {
                        "POSITION" : 4,
                        "NORMAL" : 5,
                        "TEXCOORD_0" : 6
                    },
                    "indices" : 7,
                    "material" : 1
                },
                {
                    "attributes" : {
                        "POSITION" : 8,
                        "NORMAL" : 9,
                        "TEXCOORD_0" : 10
                    },
                    "indices" : 11,
                    "material" : 2
                },
                {
                    "attributes" : {
                        "POSITION" : 12,
                        "NORMAL" : 13,
                        "TEXCOORD_0" : 14
                    },
                    "indices" : 15,
                    "material" : 3
                }
            ]
        }
    ],
    "accessors" : [
        {
            "bufferView" : 0,
            "componentType" : 5126,
            "count" : 1808,
            "max" : [
                137.336181640625,
                141.8857421875,
                0
            ],
            "min" : [
                -138.4044189453125,
                -133.8548583984375,
                -399.46502685546875
            ],
            "type" : "VEC3"
        },
        {
            "bufferView" : 1,
            "componentType" : 5126,
            "count" : 1808,
            "type" : "VEC3"
        },
        {
            "bufferView" : 2,
            "componentType" : 5126,
            "count" : 1808,
            "type" : "VEC2"
        },
        {
            "bufferView" : 3,
            "componentType" : 5123,
            "count" : 7050,
            "type" : "SCALAR"
        },
        {
            "bufferView" : 4,
            "componentType" : 5126,
            "count" : 498,
            "max" : [
                134.246337890625,
                138.7958984375,
                -82.04193115234375
            ],
            "min" : [
                -135.3145751953125,
                -130.7650146484375,
                -356.45574951171875
            ],
            "type" : "VEC3"
        },
        {
            "bufferView" : 5,
            "componentType" : 5126,
            "count" : 498,
            "type" : "VEC3"
        },
        {
            "bufferView" : 6,
            "componentType" : 5126,
            "count" : 498,
            "type" : "VEC2"
        },
        {
            "bufferView" : 7,
            "componentType" : 5123,
            "count" : 720,
            "type" : "SCALAR"
        },
        {
            "bufferView" : 8,
            "componentType" : 5126,
            "count" : 10,
            "max" : [
                133.49658203125,
                47.3917236328125,
                0
            ],
            "min" : [
                133.49658203125,
                -36.035888671875,
                -42.4329833984375
            ],
            "type" : "VEC3"
        },
        {
            "bufferView" : 9,
            "componentType" : 5126,
            "count" : 10,
            "type" : "VEC3"
        },
        {
            "bufferView" : 10,
            "componentType" : 5126,
            "count" : 10,
            "type" : "VEC2"
        },
        {
            "bufferView" : 11,
            "componentType" : 5123,
            "count" : 24,
            "type" : "SCALAR"
        },
        {
            "bufferView" : 12,
            "componentType" : 5126,
            "count" : 560,
            "max" : [
                137.336181640625,
                141.8857421875,
                0
            ],
            "min" : [
                -138.4044189453125,
                -133.8548583984375,
                -399.46502685546875
            ],
            "type" : "VEC3"
        },
        {
            "bufferView" : 13,
            "componentType" : 5126,
            "count" : 560,
            "type" : "VEC3"
        },
        {
            "bufferView" : 14,
            "componentType" : 5126,
            "count" : 560,
            "type" : "VEC2"
        },
        {
            "bufferView" : 15,
            "componentType" : 5123,
            "count" : 1080,
            "type" : "SCALAR"
        }
    ],
    "bufferViews" : [
        {
            "buffer" : 0,
            "byteLength" : 21696,
            "byteOffset" : 0
        },
        {
            "buffer" : 0,
            "byteLength" : 21696,
            "byteOffset" : 21696
        },
        {
            "buffer" : 0,
            "byteLength" : 14464,
            "byteOffset" : 43392
        },
        {
            "buffer" : 0,
            "byteLength" : 14100,
            "byteOffset" : 57856
        },
        {
            "buffer" : 0,
            "byteLength" : 5976,
            "byteOffset" : 71956
        },
        {
            "buffer" : 0,
            "byteLength" : 5976,
            "byteOffset" : 77932
        },
        {
            "buffer" : 0,
            "byteLength" : 3984,
            "byteOffset" : 83908
        },
        {
            "buffer" : 0,
            "byteLength" : 1440,
            "byteOffset" : 87892
        },
        {
            "buffer" : 0,
            "byteLength" : 120,
            "byteOffset" : 89332
        },
        {
            "buffer" : 0,
            "byteLength" : 120,
            "byteOffset" : 89452
        },
        {
            "buffer" : 0,
            "byteLength" : 80,
            "byteOffset" : 89572
        },
        {
            "buffer" : 0,
            "byteLength" : 48,
            "byteOffset" : 89652
        },
        {
            "buffer" : 0,
            "byteLength" : 6720,
            "byteOffset" : 89700
        },
        {
            "buffer" : 0,
            "byteLength" : 6720,
            "byteOffset" : 96420
        },
        {
            "buffer" : 0,
            "byteLength" : 4480,
            "byteOffset" : 103140
        },
        {
            "buffer" : 0,
            "byteLength" : 2160,
            "byteOffset" : 107620
        }
    ],
    "buffers" : [
        {
            "byteLength" : 109780,
            "uri" : "data:application/octet-stream;base64,"
        }
    ]
}
