{
  "asset": {
    "generator": "Khronos glTF Blender I/O v1.4.40",
    "version": "2.0"
  },
  "scene": 0,
  "scenes": [
    {
      "name": "Scene",
      "nodes": [0]
    }
  ],
  "nodes": [
    {
      "mesh": 0,
      "name": "Cube.028",
      "rotation": [0.7071068286895752, 0, 0, 0.7071067094802856],
      "scale": [0.20000000298023224, 0.20000000298023224, 0.20000000298023224]
    }
  ],
  "materials": [
    {
      "alphaMode": "BLEND",
      "doubleSided": true,
      "name": "primary",
      "pbrMetallicRoughness": {
        "baseColorFactor": [0.42239999771118164, 0.9599999785423279, 0.834559977054596, 1],
        "metallicFactor": 0
      }
    },
    {
      "alphaMode": "BLEND",
      "doubleSided": true,
      "name": "Windows",
      "pbrMetallicRoughness": {
        "baseColorFactor": [
          0.6022475361824036,
          0.8355541229248047,
          0.9805825352668762,
          0.8399999737739563
        ],
        "roughnessFactor": 0.6666666865348816
      }
    },
    {
      "alphaMode": "BLEND",
      "name": "white",
      "pbrMetallicRoughness": {
        "baseColorFactor": [0.5630388259887695, 0.5528155565261841, 0.7572815418243408, 1],
        "metallicFactor": 0,
        "roughnessFactor": 0.7642977237701416
      }
    },
    {
      "alphaMode": "BLEND",
      "doubleSided": true,
      "name": "Street",
      "pbrMetallicRoughness": {
        "baseColorFactor": [0.5339806079864502, 0.5339806079864502, 0.5339806079864502, 1],
        "roughnessFactor": 0.7642977237701416
      }
    },
    {
      "doubleSided": true,
      "name": "secondary",
      "pbrMetallicRoughness": {
        "baseColorFactor": [0.772549033164978, 0.5811042189598083, 0.1357889473438263, 1],
        "metallicFactor": 0
      }
    }
  ],
  "meshes": [
    {
      "name": "Cube.033",
      "primitives": [
        {
          "attributes": {
            "POSITION": 0,
            "NORMAL": 1,
            "TEXCOORD_0": 2
          },
          "indices": 3,
          "material": 0
        },
        {
          "attributes": {
            "POSITION": 4,
            "NORMAL": 5,
            "TEXCOORD_0": 6
          },
          "indices": 7,
          "material": 1
        },
        {
          "attributes": {
            "POSITION": 8,
            "NORMAL": 9,
            "TEXCOORD_0": 10
          },
          "indices": 11,
          "material": 2
        },
        {
          "attributes": {
            "POSITION": 12,
            "NORMAL": 13,
            "TEXCOORD_0": 14
          },
          "indices": 15,
          "material": 3
        },
        {
          "attributes": {
            "POSITION": 16,
            "NORMAL": 17,
            "TEXCOORD_0": 18
          },
          "indices": 19,
          "material": 4
        }
      ]
    }
  ],
  "accessors": [
    {
      "bufferView": 0,
      "componentType": 5126,
      "count": 1346,
      "max": [133.8580322265625, 137.334228515625, 0],
      "min": [-141.882568359375, -138.40625, -380.76483154296875],
      "type": "VEC3"
    },
    {
      "bufferView": 1,
      "componentType": 5126,
      "count": 1346,
      "type": "VEC3"
    },
    {
      "bufferView": 2,
      "componentType": 5126,
      "count": 1346,
      "type": "VEC2"
    },
    {
      "bufferView": 3,
      "componentType": 5123,
      "count": 6324,
      "type": "SCALAR"
    },
    {
      "bufferView": 4,
      "componentType": 5126,
      "count": 480,
      "max": [130.7681884765625, 134.244384765625, -82.04193115234375],
      "min": [-138.792724609375, -135.3165283203125, -356.45574951171875],
      "type": "VEC3"
    },
    {
      "bufferView": 5,
      "componentType": 5126,
      "count": 480,
      "type": "VEC3"
    },
    {
      "bufferView": 6,
      "componentType": 5126,
      "count": 480,
      "type": "VEC2"
    },
    {
      "bufferView": 7,
      "componentType": 5123,
      "count": 720,
      "type": "SCALAR"
    },
    {
      "bufferView": 8,
      "componentType": 5126,
      "count": 164,
      "max": [121.5521240234375, 115.0675048828125, -372.7291259765625],
      "min": [-119.344970703125, -122.7506103515625, -399.46502685546875],
      "type": "VEC3"
    },
    {
      "bufferView": 9,
      "componentType": 5126,
      "count": 164,
      "type": "VEC3"
    },
    {
      "bufferView": 10,
      "componentType": 5126,
      "count": 164,
      "type": "VEC2"
    },
    {
      "bufferView": 11,
      "componentType": 5123,
      "count": 726,
      "type": "SCALAR"
    },
    {
      "bufferView": 12,
      "componentType": 5126,
      "count": 10,
      "max": [36.0389404296875, 133.4947509765625, 0],
      "min": [-47.388671875, 133.4947509765625, -42.43296813964844],
      "type": "VEC3"
    },
    {
      "bufferView": 13,
      "componentType": 5126,
      "count": 10,
      "type": "VEC3"
    },
    {
      "bufferView": 14,
      "componentType": 5126,
      "count": 10,
      "type": "VEC2"
    },
    {
      "bufferView": 15,
      "componentType": 5123,
      "count": 24,
      "type": "SCALAR"
    },
    {
      "bufferView": 16,
      "componentType": 5126,
      "count": 520,
      "max": [133.8580322265625, 137.334228515625, 0],
      "min": [-141.882568359375, -138.40625, -399.46502685546875],
      "type": "VEC3"
    },
    {
      "bufferView": 17,
      "componentType": 5126,
      "count": 520,
      "type": "VEC3"
    },
    {
      "bufferView": 18,
      "componentType": 5126,
      "count": 520,
      "type": "VEC2"
    },
    {
      "bufferView": 19,
      "componentType": 5123,
      "count": 1080,
      "type": "SCALAR"
    }
  ],
  "bufferViews": [
    {
      "buffer": 0,
      "byteLength": 16152,
      "byteOffset": 0
    },
    {
      "buffer": 0,
      "byteLength": 16152,
      "byteOffset": 16152
    },
    {
      "buffer": 0,
      "byteLength": 10768,
      "byteOffset": 32304
    },
    {
      "buffer": 0,
      "byteLength": 12648,
      "byteOffset": 43072
    },
    {
      "buffer": 0,
      "byteLength": 5760,
      "byteOffset": 55720
    },
    {
      "buffer": 0,
      "byteLength": 5760,
      "byteOffset": 61480
    },
    {
      "buffer": 0,
      "byteLength": 3840,
      "byteOffset": 67240
    },
    {
      "buffer": 0,
      "byteLength": 1440,
      "byteOffset": 71080
    },
    {
      "buffer": 0,
      "byteLength": 1968,
      "byteOffset": 72520
    },
    {
      "buffer": 0,
      "byteLength": 1968,
      "byteOffset": 74488
    },
    {
      "buffer": 0,
      "byteLength": 1312,
      "byteOffset": 76456
    },
    {
      "buffer": 0,
      "byteLength": 1452,
      "byteOffset": 77768
    },
    {
      "buffer": 0,
      "byteLength": 120,
      "byteOffset": 79220
    },
    {
      "buffer": 0,
      "byteLength": 120,
      "byteOffset": 79340
    },
    {
      "buffer": 0,
      "byteLength": 80,
      "byteOffset": 79460
    },
    {
      "buffer": 0,
      "byteLength": 48,
      "byteOffset": 79540
    },
    {
      "buffer": 0,
      "byteLength": 6240,
      "byteOffset": 79588
    },
    {
      "buffer": 0,
      "byteLength": 6240,
      "byteOffset": 85828
    },
    {
      "buffer": 0,
      "byteLength": 4160,
      "byteOffset": 92068
    },
    {
      "buffer": 0,
      "byteLength": 2160,
      "byteOffset": 96228
    }
  ],
  "buffers": [
    {
      "byteLength": 98388,
      "uri": "data:application/octet-stream;base64,"
    }
  ]
}
