{
    "asset" : {
        "generator" : "Khronos glTF Blender I/O v1.4.40",
        "version" : "2.0"
    },
    "scene" : 0,
    "scenes" : [
        {
            "name" : "Scene",
            "nodes" : [
                0
            ]
        }
    ],
    "nodes" : [
        {
            "mesh" : 0,
            "name" : "Cube_2.001",
            "rotation" : [
                0.5000000596046448,
                -0.4999999701976776,
                0.5000000596046448,
                0.4999999701976776
            ],
            "scale" : [
                0.20000000298023224,
                0.20000000298023224,
                0.20000000298023224
            ]
        }
    ],
    "materials" : [
        {
            "alphaMode" : "BLEND",
            "doubleSided" : true,
            "name" : "primary.005",
            "pbrMetallicRoughness" : {
                "baseColorFactor" : [
                    0.42239999771118164,
                    0.9599999785423279,
                    0.834559977054596,
                    1
                ],
                "metallicFactor" : 0
            }
        },
        {
            "alphaMode" : "BLEND",
            "doubleSided" : true,
            "name" : "Windows.005",
            "pbrMetallicRoughness" : {
                "baseColorFactor" : [
                    0.6022475361824036,
                    0.8355541229248047,
                    0.9805825352668762,
                    0.8399999737739563
                ],
                "roughnessFactor" : 0.6666666865348816
            }
        },
        {
            "alphaMode" : "BLEND",
            "name" : "white.001",
            "pbrMetallicRoughness" : {
                "baseColorFactor" : [
                    0.5630388259887695,
                    0.5528155565261841,
                    0.7572815418243408,
                    1
                ],
                "metallicFactor" : 0,
                "roughnessFactor" : 0.7642977237701416
            }
        },
        {
            "alphaMode" : "BLEND",
            "doubleSided" : true,
            "name" : "Street.004",
            "pbrMetallicRoughness" : {
                "baseColorFactor" : [
                    0.5339806079864502,
                    0.5339806079864502,
                    0.5339806079864502,
                    1
                ],
                "roughnessFactor" : 0.7642977237701416
            }
        },
        {
            "doubleSided" : true,
            "name" : "secondary.005",
            "pbrMetallicRoughness" : {
                "baseColorFactor" : [
                    1,
                    0.16862745583057404,
                    0.16862745583057404,
                    1
                ],
                "metallicFactor" : 0
            }
        }
    ],
    "meshes" : [
        {
            "name" : "Cube_2.001",
            "primitives" : [
                {
                    "attributes" : {
                        "POSITION" : 0,
                        "NORMAL" : 1,
                        "TEXCOORD_0" : 2
                    },
                    "indices" : 3,
                    "material" : 0
                },
                {
                    "attributes" : {
                        "POSITION" : 4,
                        "NORMAL" : 5,
                        "TEXCOORD_0" : 6
                    },
                    "indices" : 7,
                    "material" : 1
                },
                {
                    "attributes" : {
                        "POSITION" : 8,
                        "NORMAL" : 9,
                        "TEXCOORD_0" : 10
                    },
                    "indices" : 11,
                    "material" : 2
                },
                {
                    "attributes" : {
                        "POSITION" : 12,
                        "NORMAL" : 13,
                        "TEXCOORD_0" : 14
                    },
                    "indices" : 15,
                    "material" : 3
                },
                {
                    "attributes" : {
                        "POSITION" : 16,
                        "NORMAL" : 17,
                        "TEXCOORD_0" : 18
                    },
                    "indices" : 19,
                    "material" : 4
                }
            ]
        }
    ],
    "accessors" : [
        {
            "bufferView" : 0,
            "componentType" : 5126,
            "count" : 1632,
            "max" : [
                137.333984375,
                337.462646484375,
                3.0517578125e-05
            ],
            "min" : [
                -138.40625,
                -318.36773681640625,
                -380.76483154296875
            ],
            "type" : "VEC3"
        },
        {
            "bufferView" : 1,
            "componentType" : 5126,
            "count" : 1632,
            "type" : "VEC3"
        },
        {
            "bufferView" : 2,
            "componentType" : 5126,
            "count" : 1632,
            "type" : "VEC2"
        },
        {
            "bufferView" : 3,
            "componentType" : 5123,
            "count" : 6324,
            "type" : "SCALAR"
        },
        {
            "bufferView" : 4,
            "componentType" : 5126,
            "count" : 492,
            "max" : [
                134.244140625,
                330.1136474609375,
                -82.04188537597656
            ],
            "min" : [
                -135.31640625,
                -311.01873779296875,
                -356.4556884765625
            ],
            "type" : "VEC3"
        },
        {
            "bufferView" : 5,
            "componentType" : 5126,
            "count" : 492,
            "type" : "VEC3"
        },
        {
            "bufferView" : 6,
            "componentType" : 5126,
            "count" : 492,
            "type" : "VEC2"
        },
        {
            "bufferView" : 7,
            "componentType" : 5123,
            "count" : 720,
            "type" : "SCALAR"
        },
        {
            "bufferView" : 8,
            "componentType" : 5126,
            "count" : 164,
            "max" : [
                115.0673828125,
                283.8583984375,
                -372.72906494140625
            ],
            "min" : [
                -122.7509765625,
                -289.09930419921875,
                -399.4649658203125
            ],
            "type" : "VEC3"
        },
        {
            "bufferView" : 9,
            "componentType" : 5126,
            "count" : 164,
            "type" : "VEC3"
        },
        {
            "bufferView" : 10,
            "componentType" : 5126,
            "count" : 164,
            "type" : "VEC2"
        },
        {
            "bufferView" : 11,
            "componentType" : 5123,
            "count" : 726,
            "type" : "SCALAR"
        },
        {
            "bufferView" : 12,
            "componentType" : 5126,
            "count" : 10,
            "max" : [
                133.494140625,
                112.71519470214844,
                3.0517578125e-05
            ],
            "min" : [
                133.494140625,
                -85.71174621582031,
                -42.43292236328125
            ],
            "type" : "VEC3"
        },
        {
            "bufferView" : 13,
            "componentType" : 5126,
            "count" : 10,
            "type" : "VEC3"
        },
        {
            "bufferView" : 14,
            "componentType" : 5126,
            "count" : 10,
            "type" : "VEC2"
        },
        {
            "bufferView" : 15,
            "componentType" : 5123,
            "count" : 24,
            "type" : "SCALAR"
        },
        {
            "bufferView" : 16,
            "componentType" : 5126,
            "count" : 543,
            "max" : [
                137.333984375,
                337.462646484375,
                3.0517578125e-05
            ],
            "min" : [
                -138.40625,
                -318.36773681640625,
                -399.4649658203125
            ],
            "type" : "VEC3"
        },
        {
            "bufferView" : 17,
            "componentType" : 5126,
            "count" : 543,
            "type" : "VEC3"
        },
        {
            "bufferView" : 18,
            "componentType" : 5126,
            "count" : 543,
            "type" : "VEC2"
        },
        {
            "bufferView" : 19,
            "componentType" : 5123,
            "count" : 1080,
            "type" : "SCALAR"
        }
    ],
    "bufferViews" : [
        {
            "buffer" : 0,
            "byteLength" : 19584,
            "byteOffset" : 0
        },
        {
            "buffer" : 0,
            "byteLength" : 19584,
            "byteOffset" : 19584
        },
        {
            "buffer" : 0,
            "byteLength" : 13056,
            "byteOffset" : 39168
        },
        {
            "buffer" : 0,
            "byteLength" : 12648,
            "byteOffset" : 52224
        },
        {
            "buffer" : 0,
            "byteLength" : 5904,
            "byteOffset" : 64872
        },
        {
            "buffer" : 0,
            "byteLength" : 5904,
            "byteOffset" : 70776
        },
        {
            "buffer" : 0,
            "byteLength" : 3936,
            "byteOffset" : 76680
        },
        {
            "buffer" : 0,
            "byteLength" : 1440,
            "byteOffset" : 80616
        },
        {
            "buffer" : 0,
            "byteLength" : 1968,
            "byteOffset" : 82056
        },
        {
            "buffer" : 0,
            "byteLength" : 1968,
            "byteOffset" : 84024
        },
        {
            "buffer" : 0,
            "byteLength" : 1312,
            "byteOffset" : 85992
        },
        {
            "buffer" : 0,
            "byteLength" : 1452,
            "byteOffset" : 87304
        },
        {
            "buffer" : 0,
            "byteLength" : 120,
            "byteOffset" : 88756
        },
        {
            "buffer" : 0,
            "byteLength" : 120,
            "byteOffset" : 88876
        },
        {
            "buffer" : 0,
            "byteLength" : 80,
            "byteOffset" : 88996
        },
        {
            "buffer" : 0,
            "byteLength" : 48,
            "byteOffset" : 89076
        },
        {
            "buffer" : 0,
            "byteLength" : 6516,
            "byteOffset" : 89124
        },
        {
            "buffer" : 0,
            "byteLength" : 6516,
            "byteOffset" : 95640
        },
        {
            "buffer" : 0,
            "byteLength" : 4344,
            "byteOffset" : 102156
        },
        {
            "buffer" : 0,
            "byteLength" : 2160,
            "byteOffset" : 106500
        }
    ],
    "buffers" : [
        {
            "byteLength" : 108660,
            "uri" : "data:application/octet-stream;base64,"
        }
    ]
}
