{
  "asset": {
    "generator": "Khronos glTF Blender I/O v1.4.40",
    "version": "2.0"
  },
  "scene": 0,
  "scenes": [
    {
      "name": "Scene",
      "nodes": [0]
    }
  ],
  "nodes": [
    {
      "mesh": 0,
      "name": "House.003",
      "rotation": [0.7071068286895752, 0, 0, 0.7071067094802856],
      "scale": [0.20000000298023224, 0.20000000298023224, 0.20000000298023224]
    }
  ],
  "materials": [
    {
      "alphaMode": "BLEND",
      "name": "secondary",
      "pbrMetallicRoughness": {
        "baseColorFactor": [0.33024999499320984, 0.4347374141216278, 0.6990291476249695, 1],
        "metallicFactor": 0,
        "roughnessFactor": 0.7642977237701416
      }
    },
    {
      "alphaMode": "BLEND",
      "name": "primary",
      "pbrMetallicRoughness": {
        "baseColorFactor": [0.3441794812679291, 0.7855185866355896, 0.9126216173171997, 1],
        "metallicFactor": 0.13475176692008972
      }
    }
  ],
  "meshes": [
    {
      "name": "House.003",
      "primitives": [
        {
          "attributes": {
            "POSITION": 0,
            "NORMAL": 1,
            "TEXCOORD_0": 2
          },
          "indices": 3,
          "material": 0
        },
        {
          "attributes": {
            "POSITION": 4,
            "NORMAL": 5,
            "TEXCOORD_0": 6
          },
          "indices": 7,
          "material": 1
        }
      ]
    }
  ],
  "accessors": [
    {
      "bufferView": 0,
      "componentType": 5126,
      "count": 204,
      "max": [114.2264404296875, 114.24900817871094, 0],
      "min": [-171.339599609375, -171.31690979003906, -1128.3572998046875],
      "type": "VEC3"
    },
    {
      "bufferView": 1,
      "componentType": 5126,
      "count": 204,
      "type": "VEC3"
    },
    {
      "bufferView": 2,
      "componentType": 5126,
      "count": 204,
      "type": "VEC2"
    },
    {
      "bufferView": 3,
      "componentType": 5123,
      "count": 462,
      "type": "SCALAR"
    },
    {
      "bufferView": 4,
      "componentType": 5126,
      "count": 80,
      "max": [109.799072265625, 109.82164001464844, -45.6656494140625],
      "min": [-166.9122314453125, -166.88954162597656, -1025.702880859375],
      "type": "VEC3"
    },
    {
      "bufferView": 5,
      "componentType": 5126,
      "count": 80,
      "type": "VEC3"
    },
    {
      "bufferView": 6,
      "componentType": 5126,
      "count": 80,
      "type": "VEC2"
    },
    {
      "bufferView": 7,
      "componentType": 5123,
      "count": 120,
      "type": "SCALAR"
    }
  ],
  "bufferViews": [
    {
      "buffer": 0,
      "byteLength": 2448,
      "byteOffset": 0
    },
    {
      "buffer": 0,
      "byteLength": 2448,
      "byteOffset": 2448
    },
    {
      "buffer": 0,
      "byteLength": 1632,
      "byteOffset": 4896
    },
    {
      "buffer": 0,
      "byteLength": 924,
      "byteOffset": 6528
    },
    {
      "buffer": 0,
      "byteLength": 960,
      "byteOffset": 7452
    },
    {
      "buffer": 0,
      "byteLength": 960,
      "byteOffset": 8412
    },
    {
      "buffer": 0,
      "byteLength": 640,
      "byteOffset": 9372
    },
    {
      "buffer": 0,
      "byteLength": 240,
      "byteOffset": 10012
    }
  ],
  "buffers": [
    {
      "byteLength": 10252,
      "uri": "data:application/octet-stream;base64,"
    }
  ]
}
