{
    "asset" : {
        "generator" : "Khronos glTF Blender I/O v1.4.40",
        "version" : "2.0"
    },
    "scene" : 0,
    "scenes" : [
        {
            "name" : "Scene",
            "nodes" : [
                0
            ]
        }
    ],
    "nodes" : [
        {
            "mesh" : 0,
            "name" : "House_8.001",
            "rotation" : [
                0,
                0.7071067094802856,
                -0.7071068286895752,
                -3.0908616110991716e-08
            ],
            "scale" : [
                0.20000000298023224,
                0.20000000298023224,
                0.20000000298023224
            ]
        }
    ],
    "materials" : [
        {
            "alphaMode" : "BLEND",
            "name" : "White",
            "pbrMetallicRoughness" : {
                "metallicFactor" : 0
            }
        },
        {
            "alphaMode" : "BLEND",
            "doubleSided" : true,
            "name" : "primary.008",
            "pbrMetallicRoughness" : {
                "baseColorFactor" : [
                    0.42239999771118164,
                    0.9599999785423279,
                    0.834559977054596,
                    1
                ],
                "metallicFactor" : 0
            }
        },
        {
            "alphaMode" : "BLEND",
            "doubleSided" : true,
            "name" : "Windows.006",
            "pbrMetallicRoughness" : {
                "baseColorFactor" : [
                    0.6022475361824036,
                    0.8355541229248047,
                    0.9805825352668762,
                    0.8399999737739563
                ],
                "roughnessFactor" : 0.6666666865348816
            }
        }
    ],
    "meshes" : [
        {
            "name" : "House_8.001",
            "primitives" : [
                {
                    "attributes" : {
                        "POSITION" : 0,
                        "NORMAL" : 1,
                        "TEXCOORD_0" : 2
                    },
                    "indices" : 3,
                    "material" : 0
                },
                {
                    "attributes" : {
                        "POSITION" : 4,
                        "NORMAL" : 5,
                        "TEXCOORD_0" : 6
                    },
                    "indices" : 7,
                    "material" : 1
                },
                {
                    "attributes" : {
                        "POSITION" : 8,
                        "NORMAL" : 9,
                        "TEXCOORD_0" : 10
                    },
                    "indices" : 11,
                    "material" : 2
                }
            ]
        }
    ],
    "accessors" : [
        {
            "bufferView" : 0,
            "componentType" : 5126,
            "count" : 207,
            "max" : [
                410.4786682128906,
                128.4822998046875,
                1.52587890625e-05
            ],
            "min" : [
                -419.07611083984375,
                -199.6533203125,
                -481.331298828125
            ],
            "type" : "VEC3"
        },
        {
            "bufferView" : 1,
            "componentType" : 5126,
            "count" : 207,
            "type" : "VEC3"
        },
        {
            "bufferView" : 2,
            "componentType" : 5126,
            "count" : 207,
            "type" : "VEC2"
        },
        {
            "bufferView" : 3,
            "componentType" : 5123,
            "count" : 411,
            "type" : "SCALAR"
        },
        {
            "bufferView" : 4,
            "componentType" : 5126,
            "count" : 1541,
            "max" : [
                410.4786682128906,
                128.4822998046875,
                1.52587890625e-05
            ],
            "min" : [
                -419.07611083984375,
                -221.792236328125,
                -460.4999084472656
            ],
            "type" : "VEC3"
        },
        {
            "bufferView" : 5,
            "componentType" : 5126,
            "count" : 1541,
            "type" : "VEC3"
        },
        {
            "bufferView" : 6,
            "componentType" : 5126,
            "count" : 1541,
            "type" : "VEC2"
        },
        {
            "bufferView" : 7,
            "componentType" : 5123,
            "count" : 3201,
            "type" : "SCALAR"
        },
        {
            "bufferView" : 8,
            "componentType" : 5126,
            "count" : 266,
            "max" : [
                396.0267639160156,
                92.0859375,
                -35.467498779296875
            ],
            "min" : [
                -404.5216979980469,
                -176.82666015625,
                -412.30889892578125
            ],
            "type" : "VEC3"
        },
        {
            "bufferView" : 9,
            "componentType" : 5126,
            "count" : 266,
            "type" : "VEC3"
        },
        {
            "bufferView" : 10,
            "componentType" : 5126,
            "count" : 266,
            "type" : "VEC2"
        },
        {
            "bufferView" : 11,
            "componentType" : 5123,
            "count" : 396,
            "type" : "SCALAR"
        }
    ],
    "bufferViews" : [
        {
            "buffer" : 0,
            "byteLength" : 2484,
            "byteOffset" : 0
        },
        {
            "buffer" : 0,
            "byteLength" : 2484,
            "byteOffset" : 2484
        },
        {
            "buffer" : 0,
            "byteLength" : 1656,
            "byteOffset" : 4968
        },
        {
            "buffer" : 0,
            "byteLength" : 822,
            "byteOffset" : 6624
        },
        {
            "buffer" : 0,
            "byteLength" : 18492,
            "byteOffset" : 7448
        },
        {
            "buffer" : 0,
            "byteLength" : 18492,
            "byteOffset" : 25940
        },
        {
            "buffer" : 0,
            "byteLength" : 12328,
            "byteOffset" : 44432
        },
        {
            "buffer" : 0,
            "byteLength" : 6402,
            "byteOffset" : 56760
        },
        {
            "buffer" : 0,
            "byteLength" : 3192,
            "byteOffset" : 63164
        },
        {
            "buffer" : 0,
            "byteLength" : 3192,
            "byteOffset" : 66356
        },
        {
            "buffer" : 0,
            "byteLength" : 2128,
            "byteOffset" : 69548
        },
        {
            "buffer" : 0,
            "byteLength" : 792,
            "byteOffset" : 71676
        }
    ],
    "buffers" : [
        {
            "byteLength" : 72468,
            "uri" : "data:application/octet-stream;base64,"
        }
    ]
}
