{
    "asset" : {
        "generator" : "Khronos glTF Blender I/O v1.4.40",
        "version" : "2.0"
    },
    "scene" : 0,
    "scenes" : [
        {
            "name" : "Scene",
            "nodes" : [
                0
            ]
        }
    ],
    "nodes" : [
        {
            "mesh" : 0,
            "name" : "House_Base.002",
            "rotation" : [
                0.5000000596046448,
                -0.4999999701976776,
                0.5000000596046448,
                0.4999999701976776
            ],
            "scale" : [
                0.20000000298023224,
                0.20000000298023224,
                0.20000000298023224
            ]
        }
    ],
    "materials" : [
        {
            "alphaMode" : "BLEND",
            "name" : "primary.009",
            "pbrMetallicRoughness" : {
                "baseColorFactor" : [
                    0.9126213788986206,
                    0.5888922810554504,
                    0.5317636132240295,
                    1
                ],
                "metallicFactor" : 0
            }
        },
        {
            "alphaMode" : "BLEND",
            "name" : "Round Building Glass",
            "pbrMetallicRoughness" : {
                "baseColorFactor" : [
                    0.3441794812679291,
                    0.7855185866355896,
                    0.9126216173171997,
                    1
                ],
                "metallicFactor" : 0.13475176692008972
            }
        },
        {
            "alphaMode" : "BLEND",
            "doubleSided" : true,
            "name" : "GUM_1",
            "pbrMetallicRoughness" : {
                "baseColorFactor" : [
                    0.291262149810791,
                    0.28736335039138794,
                    0.2775017321109772,
                    1
                ],
                "roughnessFactor" : 0.7642977237701416
            }
        },
        {
            "doubleSided" : true,
            "name" : "secondary.008",
            "pbrMetallicRoughness" : {
                "baseColorFactor" : [
                    0.1882352977991104,
                    0.729411780834198,
                    0.5607843399047852,
                    1
                ],
                "metallicFactor" : 0
            }
        }
    ],
    "meshes" : [
        {
            "name" : "House_Base.002",
            "primitives" : [
                {
                    "attributes" : {
                        "POSITION" : 0,
                        "NORMAL" : 1,
                        "TEXCOORD_0" : 2
                    },
                    "indices" : 3,
                    "material" : 0
                },
                {
                    "attributes" : {
                        "POSITION" : 4,
                        "NORMAL" : 5,
                        "TEXCOORD_0" : 6
                    },
                    "indices" : 7,
                    "material" : 1
                },
                {
                    "attributes" : {
                        "POSITION" : 8,
                        "NORMAL" : 9,
                        "TEXCOORD_0" : 10
                    },
                    "indices" : 11,
                    "material" : 2
                },
                {
                    "attributes" : {
                        "POSITION" : 12,
                        "NORMAL" : 13,
                        "TEXCOORD_0" : 14
                    },
                    "indices" : 15,
                    "material" : 3
                }
            ]
        }
    ],
    "accessors" : [
        {
            "bufferView" : 0,
            "componentType" : 5126,
            "count" : 3446,
            "max" : [
                118.15482330322266,
                141.135498046875,
                3.0517578125e-05
            ],
            "min" : [
                -118.15572357177734,
                -141.13491821289062,
                -470.6494140625
            ],
            "type" : "VEC3"
        },
        {
            "bufferView" : 1,
            "componentType" : 5126,
            "count" : 3446,
            "type" : "VEC3"
        },
        {
            "bufferView" : 2,
            "componentType" : 5126,
            "count" : 3446,
            "type" : "VEC2"
        },
        {
            "bufferView" : 3,
            "componentType" : 5123,
            "count" : 12885,
            "type" : "SCALAR"
        },
        {
            "bufferView" : 4,
            "componentType" : 5126,
            "count" : 794,
            "max" : [
                114.14408111572266,
                137.1246337890625,
                -62.8282470703125
            ],
            "min" : [
                -114.14498138427734,
                -137.12411499023438,
                -405.7327880859375
            ],
            "type" : "VEC3"
        },
        {
            "bufferView" : 5,
            "componentType" : 5126,
            "count" : 794,
            "type" : "VEC3"
        },
        {
            "bufferView" : 6,
            "componentType" : 5126,
            "count" : 794,
            "type" : "VEC2"
        },
        {
            "bufferView" : 7,
            "componentType" : 5123,
            "count" : 1176,
            "type" : "SCALAR"
        },
        {
            "bufferView" : 8,
            "componentType" : 5126,
            "count" : 5,
            "max" : [
                55.13870620727539,
                -9.988581657409668,
                -433.9735107421875
            ],
            "min" : [
                44.43533706665039,
                -9.988581657409668,
                -457.6119384765625
            ],
            "type" : "VEC3"
        },
        {
            "bufferView" : 9,
            "componentType" : 5126,
            "count" : 5,
            "type" : "VEC3"
        },
        {
            "bufferView" : 10,
            "componentType" : 5126,
            "count" : 5,
            "type" : "VEC2"
        },
        {
            "bufferView" : 11,
            "componentType" : 5123,
            "count" : 9,
            "type" : "SCALAR"
        },
        {
            "bufferView" : 12,
            "componentType" : 5126,
            "count" : 20,
            "max" : [
                55.13870620727539,
                -9.408747673034668,
                -433.9735107421875
            ],
            "min" : [
                44.43533706665039,
                -9.988581657409668,
                -457.6119384765625
            ],
            "type" : "VEC3"
        },
        {
            "bufferView" : 13,
            "componentType" : 5126,
            "count" : 20,
            "type" : "VEC3"
        },
        {
            "bufferView" : 14,
            "componentType" : 5126,
            "count" : 20,
            "type" : "VEC2"
        },
        {
            "bufferView" : 15,
            "componentType" : 5123,
            "count" : 30,
            "type" : "SCALAR"
        }
    ],
    "bufferViews" : [
        {
            "buffer" : 0,
            "byteLength" : 41352,
            "byteOffset" : 0
        },
        {
            "buffer" : 0,
            "byteLength" : 41352,
            "byteOffset" : 41352
        },
        {
            "buffer" : 0,
            "byteLength" : 27568,
            "byteOffset" : 82704
        },
        {
            "buffer" : 0,
            "byteLength" : 25770,
            "byteOffset" : 110272
        },
        {
            "buffer" : 0,
            "byteLength" : 9528,
            "byteOffset" : 136044
        },
        {
            "buffer" : 0,
            "byteLength" : 9528,
            "byteOffset" : 145572
        },
        {
            "buffer" : 0,
            "byteLength" : 6352,
            "byteOffset" : 155100
        },
        {
            "buffer" : 0,
            "byteLength" : 2352,
            "byteOffset" : 161452
        },
        {
            "buffer" : 0,
            "byteLength" : 60,
            "byteOffset" : 163804
        },
        {
            "buffer" : 0,
            "byteLength" : 60,
            "byteOffset" : 163864
        },
        {
            "buffer" : 0,
            "byteLength" : 40,
            "byteOffset" : 163924
        },
        {
            "buffer" : 0,
            "byteLength" : 18,
            "byteOffset" : 163964
        },
        {
            "buffer" : 0,
            "byteLength" : 240,
            "byteOffset" : 163984
        },
        {
            "buffer" : 0,
            "byteLength" : 240,
            "byteOffset" : 164224
        },
        {
            "buffer" : 0,
            "byteLength" : 160,
            "byteOffset" : 164464
        },
        {
            "buffer" : 0,
            "byteLength" : 60,
            "byteOffset" : 164624
        }
    ],
    "buffers" : [
        {
            "byteLength" : 164684,
            "uri" : "data:application/octet-stream;base64,"
        }
    ]
}
