{
    "asset" : {
        "generator" : "Khronos glTF Blender I/O v1.4.40",
        "version" : "2.0"
    },
    "scene" : 0,
    "scenes" : [
        {
            "name" : "Scene",
            "nodes" : [
                0
            ]
        }
    ],
    "nodes" : [
        {
            "mesh" : 0,
            "name" : "Grass_107.001",
            "rotation" : [
                0.7071068286895752,
                0,
                0,
                0.7071067094802856
            ],
            "scale" : [
                0.05500863119959831,
                0.05500863119959831,
                0.05500863119959831
            ]
        }
    ],
    "materials" : [
        {
            "alphaMode" : "BLEND",
            "name" : "Building_Green",
            "pbrMetallicRoughness" : {
                "baseColorFactor" : [
                    0.608854353427887,
                    0.7572815418243408,
                    0.5452427268028259,
                    1
                ],
                "roughnessFactor" : 0.7642977237701416
            }
        },
        {
            "alphaMode" : "BLEND",
            "doubleSided" : true,
            "name" : "White_1",
            "pbrMetallicRoughness" : {}
        },
        {
            "alphaMode" : "BLEND",
            "doubleSided" : true,
            "name" : "Wood",
            "pbrMetallicRoughness" : {
                "baseColorFactor" : [
                    0.43689319491386414,
                    0.36281630396842957,
                    0.2029661387205124,
                    1
                ]
            }
        },
        {
            "alphaMode" : "BLEND",
            "doubleSided" : true,
            "name" : "Grass",
            "pbrMetallicRoughness" : {
                "baseColorFactor" : [
                    0.6022499799728394,
                    0.7300000190734863,
                    0.21899999678134918,
                    1
                ]
            }
        }
    ],
    "meshes" : [
        {
            "name" : "Grass_107.001",
            "primitives" : [
                {
                    "attributes" : {
                        "POSITION" : 0,
                        "NORMAL" : 1,
                        "TEXCOORD_0" : 2
                    },
                    "indices" : 3,
                    "material" : 0
                },
                {
                    "attributes" : {
                        "POSITION" : 4,
                        "NORMAL" : 5,
                        "TEXCOORD_0" : 6
                    },
                    "indices" : 7,
                    "material" : 1
                },
                {
                    "attributes" : {
                        "POSITION" : 8,
                        "NORMAL" : 9,
                        "TEXCOORD_0" : 10
                    },
                    "indices" : 11,
                    "material" : 2
                },
                {
                    "attributes" : {
                        "POSITION" : 12,
                        "NORMAL" : 13,
                        "TEXCOORD_0" : 14
                    },
                    "indices" : 15,
                    "material" : 3
                }
            ]
        }
    ],
    "accessors" : [
        {
            "bufferView" : 0,
            "componentType" : 5126,
            "count" : 212,
            "max" : [
                26.03839111328125,
                25.8179931640625,
                -1.997243881225586
            ],
            "min" : [
                -27.7620849609375,
                -29.2772216796875,
                -7.846965789794922
            ],
            "type" : "VEC3"
        },
        {
            "bufferView" : 1,
            "componentType" : 5126,
            "count" : 212,
            "type" : "VEC3"
        },
        {
            "bufferView" : 2,
            "componentType" : 5126,
            "count" : 212,
            "type" : "VEC2"
        },
        {
            "bufferView" : 3,
            "componentType" : 5123,
            "count" : 510,
            "type" : "SCALAR"
        },
        {
            "bufferView" : 4,
            "componentType" : 5126,
            "count" : 264,
            "max" : [
                26.4478759765625,
                26.2374267578125,
                0.1094520092010498
            ],
            "min" : [
                -28.171630859375,
                -29.696533203125,
                -5.856620788574219
            ],
            "type" : "VEC3"
        },
        {
            "bufferView" : 5,
            "componentType" : 5126,
            "count" : 264,
            "type" : "VEC3"
        },
        {
            "bufferView" : 6,
            "componentType" : 5126,
            "count" : 264,
            "type" : "VEC2"
        },
        {
            "bufferView" : 7,
            "componentType" : 5123,
            "count" : 432,
            "type" : "SCALAR"
        },
        {
            "bufferView" : 8,
            "componentType" : 5126,
            "count" : 143,
            "max" : [
                4.54046630859375,
                6.8494873046875,
                -2.7969484329223633
            ],
            "min" : [
                -10.01043701171875,
                -1.86474609375,
                -59.5887565612793
            ],
            "type" : "VEC3"
        },
        {
            "bufferView" : 9,
            "componentType" : 5126,
            "count" : 143,
            "type" : "VEC3"
        },
        {
            "bufferView" : 10,
            "componentType" : 5126,
            "count" : 143,
            "type" : "VEC2"
        },
        {
            "bufferView" : 11,
            "componentType" : 5123,
            "count" : 498,
            "type" : "SCALAR"
        },
        {
            "bufferView" : 12,
            "componentType" : 5126,
            "count" : 142,
            "max" : [
                17.77862548828125,
                18.07568359375,
                -42.99903106689453
            ],
            "min" : [
                -19.46282958984375,
                -7.6396484375,
                -95.96426391601562
            ],
            "type" : "VEC3"
        },
        {
            "bufferView" : 13,
            "componentType" : 5126,
            "count" : 142,
            "type" : "VEC3"
        },
        {
            "bufferView" : 14,
            "componentType" : 5126,
            "count" : 142,
            "type" : "VEC2"
        },
        {
            "bufferView" : 15,
            "componentType" : 5123,
            "count" : 162,
            "type" : "SCALAR"
        }
    ],
    "bufferViews" : [
        {
            "buffer" : 0,
            "byteLength" : 2544,
            "byteOffset" : 0
        },
        {
            "buffer" : 0,
            "byteLength" : 2544,
            "byteOffset" : 2544
        },
        {
            "buffer" : 0,
            "byteLength" : 1696,
            "byteOffset" : 5088
        },
        {
            "buffer" : 0,
            "byteLength" : 1020,
            "byteOffset" : 6784
        },
        {
            "buffer" : 0,
            "byteLength" : 3168,
            "byteOffset" : 7804
        },
        {
            "buffer" : 0,
            "byteLength" : 3168,
            "byteOffset" : 10972
        },
        {
            "buffer" : 0,
            "byteLength" : 2112,
            "byteOffset" : 14140
        },
        {
            "buffer" : 0,
            "byteLength" : 864,
            "byteOffset" : 16252
        },
        {
            "buffer" : 0,
            "byteLength" : 1716,
            "byteOffset" : 17116
        },
        {
            "buffer" : 0,
            "byteLength" : 1716,
            "byteOffset" : 18832
        },
        {
            "buffer" : 0,
            "byteLength" : 1144,
            "byteOffset" : 20548
        },
        {
            "buffer" : 0,
            "byteLength" : 996,
            "byteOffset" : 21692
        },
        {
            "buffer" : 0,
            "byteLength" : 1704,
            "byteOffset" : 22688
        },
        {
            "buffer" : 0,
            "byteLength" : 1704,
            "byteOffset" : 24392
        },
        {
            "buffer" : 0,
            "byteLength" : 1136,
            "byteOffset" : 26096
        },
        {
            "buffer" : 0,
            "byteLength" : 324,
            "byteOffset" : 27232
        }
    ],
    "buffers" : [
        {
            "byteLength" : 27556,
            "uri" : "data:application/octet-stream;base64,"
        }
    ]
}
